<?xml version="1.0" encoding="UTF-8"?>
<svg version="1.1" xmlns="http://www.w3.org/2000/svg" width="546" height="510">
<path d="M0 0 C1.42847819 -0.00645876 2.85695518 -0.01318914 4.28543091 -0.02017212 C7.26551361 -0.03205464 10.24548127 -0.03586285 13.22558594 -0.03466797 C16.22941391 -0.03450629 19.2326264 -0.04827052 22.23632812 -0.07568359 C40.15356462 -0.2366124 57.32692474 0.24935372 74.8828125 4.3359375 C76.12691895 4.61840332 77.37102539 4.90086914 78.65283203 5.19189453 C81.63041872 5.92053498 84.56685856 6.7223937 87.5078125 7.5859375 C89.05082031 8.02981812 89.05082031 8.02981812 90.625 8.48266602 C132.44451971 20.81414539 168.6265263 43.16935332 199.8828125 73.3359375 C200.82382812 74.23570313 201.76484375 75.13546875 202.734375 76.0625 C208.60830489 81.79094556 213.81493354 87.88987458 218.8828125 94.3359375 C219.66269531 95.29886719 220.44257813 96.26179688 221.24609375 97.25390625 C248.98104166 132.15482157 266.1843881 174.40754804 272.8828125 218.3359375 C272.99995605 219.09487305 273.11709961 219.85380859 273.23779297 220.63574219 C282.80776954 286.30312972 264.33834548 354.66682223 225.3203125 407.859375 C222.91425224 411.07704315 220.42137354 414.22204613 217.8828125 417.3359375 C217.43502441 417.88668945 216.98723633 418.43744141 216.52587891 419.00488281 C205.57392426 432.36649588 193.58378139 444.77559185 179.8828125 455.3359375 C178.87992187 456.13257813 177.87703125 456.92921875 176.84375 457.75 C156.84724539 473.5509605 134.78108927 486.39431102 110.8828125 495.3359375 C109.54259033 495.83818848 109.54259033 495.83818848 108.17529297 496.35058594 C88.45287615 503.60472992 66.45495342 510.32492698 45.28686523 510.51293945 C44.01701279 510.52577469 42.74716034 510.53860992 41.43882751 510.55183411 C40.06469118 510.56001373 38.69055028 510.56745509 37.31640625 510.57421875 C36.61110338 510.57829428 35.90580051 510.5823698 35.17912483 510.58656883 C31.43200103 510.60737372 27.68491303 510.62168879 23.93774414 510.63110352 C20.88610381 510.6398851 17.83493053 510.66057806 14.78344727 510.69262695 C-2.91939467 510.87441685 -19.79390452 510.5000556 -37.1171875 506.3359375 C-38.28241943 506.07901123 -39.44765137 505.82208496 -40.64819336 505.55737305 C-43.38563426 504.93427957 -46.09397123 504.25311557 -48.8046875 503.5234375 C-49.75126221 503.27118408 -50.69783691 503.01893066 -51.6730957 502.7590332 C-94.26775772 491.0884314 -131.52618045 467.82557301 -163.1171875 437.3359375 C-164.05820313 436.43617188 -164.99921875 435.53640625 -165.96875 434.609375 C-171.84267989 428.88092944 -177.04930854 422.78200042 -182.1171875 416.3359375 C-182.89707031 415.37300781 -183.67695313 414.41007812 -184.48046875 413.41796875 C-212.27425549 378.44301224 -229.25621533 336.30161967 -236.1171875 292.3359375 C-236.23433105 291.62002441 -236.35147461 290.90411133 -236.47216797 290.16650391 C-246.61901409 225.56139897 -227.70718922 157.05556042 -189.8046875 104.51660156 C-187.01071338 100.70762903 -184.10202976 96.99725366 -181.1171875 93.3359375 C-180.66939941 92.78518555 -180.22161133 92.23443359 -179.76025391 91.66699219 C-168.80650703 78.30319256 -156.81469375 65.90427207 -143.1171875 55.3359375 C-142.1375 54.55089844 -141.1578125 53.76585937 -140.1484375 52.95703125 C-101.25884545 22.00396614 -50.14945379 0.05454936 0 0 Z M-17.1171875 21.3359375 C-18.01872559 21.49723145 -18.92026367 21.65852539 -19.84912109 21.82470703 C-64.13734467 29.97980365 -105.58331312 48.54986115 -138.8671875 79.2734375 C-140.84508308 81.08650844 -142.86915567 82.80632764 -144.9296875 84.5234375 C-172.2143707 108.46602095 -191.62453724 141.62504515 -204.1171875 175.3359375 C-204.36452637 175.99803223 -204.61186523 176.66012695 -204.86669922 177.34228516 C-223.02336564 226.62836824 -222.63607973 283.0058272 -205.1171875 332.3359375 C-204.88418945 333.01237305 -204.65119141 333.68880859 -204.41113281 334.38574219 C-196.1539941 358.2953413 -183.95463756 380.59092967 -168.1171875 400.3359375 C-167.09818359 401.64111328 -167.09818359 401.64111328 -166.05859375 402.97265625 C-152.09434274 420.5240543 -136.14685628 435.08314537 -118.1171875 448.3359375 C-117.52373535 448.77550781 -116.9302832 449.21507812 -116.31884766 449.66796875 C-85.13370829 472.47973978 -47.23916098 485.62792129 -9.1171875 490.3359375 C-8.39966309 490.4302002 -7.68213867 490.52446289 -6.94287109 490.62158203 C53.46080374 497.71073891 115.392902 479.09901482 163.24047852 442.0925293 C167.82041997 438.47469483 172.13596087 434.59993772 176.40625 430.625 C178.49963433 428.69010534 180.63363457 426.85016844 182.8203125 425.0234375 C209.65171835 401.51868969 228.62014973 368.42621825 240.8828125 335.3359375 C241.13015137 334.67384277 241.37749023 334.01174805 241.63232422 333.32958984 C262.16158236 277.60313108 258.41903215 214.41577714 234.8828125 160.3359375 C234.57649902 159.61631836 234.27018555 158.89669922 233.95458984 158.15527344 C226.59407551 140.98471651 216.56317506 124.89818391 204.8828125 110.3359375 C204.20347656 109.46582031 203.52414062 108.59570312 202.82421875 107.69921875 C163.81129537 58.66462697 106.60395279 27.63621997 44.52807617 20.0480957 C35.97374006 19.14114743 27.41184024 19.13512506 18.8203125 19.1484375 C18.04013763 19.14937408 17.25996277 19.15031067 16.45614624 19.15127563 C5.15577827 19.18069952 -5.9670307 19.32160642 -17.1171875 21.3359375 Z " fill="#0E0E0E" transform="translate(239.1171875,-0.3359375)"/>
<path d="M0 0 C2.82445099 2.0981636 5.06960376 4.08664715 7.28125 6.83984375 C9.91298237 10.05025345 12.97207804 12.4983366 16.3125 14.9375 C21.40942965 18.75133207 26.29367522 22.70601183 31 27 C26.58179553 41.40164727 15.40238438 57.59341916 2 65 C-4.05112249 64.69331543 -9.56076081 58.63846325 -13.42285156 54.4609375 C-30 35.33433014 -30 35.33433014 -30 27 C-28.6015625 25.5546875 -28.6015625 25.5546875 -26.625 23.875 C-25.89667969 23.25496094 -25.16835937 22.63492187 -24.41796875 21.99609375 C-21.10603546 19.26200988 -17.75064203 16.58477104 -14.390625 13.91015625 C-9.00606961 9.60779091 -4.26875909 5.43296611 0 0 Z " fill="#0C0C0C" transform="translate(257,311)"/>
<path d="M0 0 C13.83869983 6.49459774 23.89789866 22.40789065 29.97265625 35.92578125 C29.97265625 37.92578125 29.97265625 37.92578125 28.57421875 39.37109375 C27.59582031 40.20253906 27.59582031 40.20253906 26.59765625 41.05078125 C25.86933594 41.67082031 25.14101563 42.29085937 24.390625 42.9296875 C21.07869171 45.66377137 17.72329828 48.34101021 14.36328125 51.015625 C8.97872586 55.31799034 4.24141534 59.49281514 -0.02734375 64.92578125 C-2.8535166 62.82633856 -5.0973647 60.83849486 -7.30859375 58.08203125 C-9.93439808 54.87787531 -12.99628271 52.46856208 -16.33984375 50.05078125 C-21.69103911 46.0710054 -26.48956732 41.83370863 -31.02734375 36.92578125 C-26.90879863 27.99368652 -22.5185074 20.40734925 -16.02734375 12.92578125 C-15.39183594 12.09949219 -14.75632813 11.27320313 -14.1015625 10.421875 C-11.92515739 7.80281122 -9.65867544 5.70879413 -7.02734375 3.55078125 C-6.18171875 2.84179688 -5.33609375 2.1328125 -4.46484375 1.40234375 C-2.02734375 -0.07421875 -2.02734375 -0.07421875 0 0 Z " fill="#0B0B0B" transform="translate(258.02734375,134.07421875)"/>
<path d="M0 0 C15.92616616 4.86959586 28.14759311 15.98509214 38 29 C33.00814277 43.09031621 17.24131082 52.05182634 4.77734375 59.015625 C2 60 2 60 -0.17578125 59.34765625 C-6.31111415 54.8151298 -10.68896616 48.85124716 -15.21484375 42.7890625 C-18.66522349 38.24853211 -22.46722584 34.48187959 -27 31 C-25.63698986 27.90877125 -24.81409143 26.84969094 -22.0625 24.625 C-17.67840509 21.0463338 -14.48990183 16.66394592 -11.07324219 12.19726562 C-7.66865035 7.7729524 -4.08860574 3.81603202 0 0 Z " fill="#0C0C0C" transform="translate(341,225)"/>
<path d="M0 0 C6.1353329 4.53252645 10.51318491 10.49640909 15.0390625 16.55859375 C18.48944224 21.09912414 22.29144459 24.86577666 26.82421875 28.34765625 C25.45843441 31.52310485 24.04379298 33.1841737 21.32421875 35.28515625 C17.0345371 38.88973448 13.81016576 43.09360685 10.48876953 47.55908203 C7.23752383 51.90124785 3.78106609 55.64886417 -0.17578125 59.34765625 C-16.10194741 54.47806039 -28.32337436 43.36256411 -38.17578125 30.34765625 C-33.18392402 16.25734004 -17.41709207 7.29582991 -4.953125 0.33203125 C-2.17578125 -0.65234375 -2.17578125 -0.65234375 0 0 Z " fill="#0A0A0A" transform="translate(174.17578125,225.65234375)"/>
<path d="M0 0 C-0.09087891 1.01030273 -0.09087891 1.01030273 -0.18359375 2.04101562 C-1.33676317 15.05408904 -2.35061016 27.93003233 -2 41 C-2.95253662 41.03758423 -2.95253662 41.03758423 -3.92431641 41.07592773 C-6.82471542 41.19256789 -9.72484349 41.31498393 -12.625 41.4375 C-13.62402344 41.47681641 -14.62304688 41.51613281 -15.65234375 41.55664062 C-20.5284484 41.76653917 -25.18654458 42.17009389 -30 43 C-32.29083289 43.06522873 -34.58335794 43.0858841 -36.875 43.0625 C-38.02742187 43.05347656 -39.17984375 43.04445312 -40.3671875 43.03515625 C-41.23601562 43.02355469 -42.10484375 43.01195312 -43 43 C-50.40399152 27.79665819 -51.21512511 11.61343834 -49 -5 C-33.47283469 -9.43062501 -14.62885619 -5.68899963 0 0 Z " fill="#0B0B0B" transform="translate(220,174)"/>
<path d="M0 0 C1.14082031 0.00257813 2.28164062 0.00515625 3.45703125 0.0078125 C4.58496094 0.00523437 5.71289062 0.00265625 6.875 0 C10.26953125 0.1328125 10.26953125 0.1328125 12.984375 0.60546875 C17.85033738 1.38656854 22.72476831 1.50169602 27.64453125 1.6953125 C28.66675781 1.73849609 29.68898437 1.78167969 30.7421875 1.82617188 C33.25118413 1.93169042 35.76027068 2.03380463 38.26953125 2.1328125 C38.24632812 2.99777344 38.223125 3.86273438 38.19921875 4.75390625 C38.01491614 17.61559529 39.11791587 30.33027987 40.26953125 43.1328125 C37.75076832 43.95224198 35.22982455 44.76346319 32.70703125 45.5703125 C32.00255859 45.80041016 31.29808594 46.03050781 30.57226562 46.26757812 C22.57702331 48.80984411 14.98762852 49.29286753 6.64453125 49.2578125 C5.25234375 49.26361328 5.25234375 49.26361328 3.83203125 49.26953125 C2.93226563 49.26824219 2.0325 49.26695312 1.10546875 49.265625 C0.2964209 49.26449707 -0.51262695 49.26336914 -1.34619141 49.26220703 C-3.88603513 49.12436993 -6.25100016 48.6875392 -8.73046875 48.1328125 C-10.87535971 32.0461303 -9.86778244 16.30340175 -3.73046875 1.1328125 C-2.73046875 0.1328125 -2.73046875 0.1328125 0 0 Z " fill="#0B0B0B" transform="translate(179.73046875,292.8671875)"/>
<path d="M0 0 C1.15242188 0.00902344 2.30484375 0.01804687 3.4921875 0.02734375 C4.36101562 0.03894531 5.22984375 0.05054688 6.125 0.0625 C13.90871154 14.55630769 14.25412842 32.09403686 12.125 48.0625 C-3.71164026 52.13665642 -21.98737512 48.85844556 -36.875 43.0625 C-36.78412109 42.05219727 -36.78412109 42.05219727 -36.69140625 41.02148438 C-35.53823683 28.00841096 -34.52438984 15.13246767 -34.875 2.0625 C-33.92246338 2.02491577 -33.92246338 2.02491577 -32.95068359 1.98657227 C-30.05028458 1.86993211 -27.15015651 1.74751607 -24.25 1.625 C-23.25097656 1.58568359 -22.25195312 1.54636719 -21.22265625 1.50585938 C-14.08910433 1.19878595 -7.13530314 -0.07280922 0 0 Z " fill="#0B0B0B" transform="translate(331.875,292.9375)"/>
<path d="M0 0 C2.12912842 15.96846314 1.78371154 33.50619231 -6 48 C-8.04159095 48.0272616 -10.08328963 48.04651345 -12.125 48.0625 C-13.26195312 48.07410156 -14.39890625 48.08570313 -15.5703125 48.09765625 C-19 48 -19 48 -21.71875 47.53125 C-26.5829434 46.74371393 -31.4560655 46.63108387 -36.375 46.4375 C-37.39722656 46.39431641 -38.41945313 46.35113281 -39.47265625 46.30664062 C-41.98165288 46.20112208 -44.49073943 46.09900787 -47 46 C-46.98839844 44.94941406 -46.97679687 43.89882812 -46.96484375 42.81640625 C-46.81165717 34.13724913 -46.81165717 34.13724913 -47.5 25.5 C-48.44034758 18.7321463 -48.07527414 11.81649117 -48 5 C-33.90101167 -1.37131498 -15.2232072 -3.91634376 0 0 Z " fill="#0B0B0B" transform="translate(344,169)"/>
<path d="M0 0 C4.1893903 1.47677951 7.65938892 3.65371633 11.3125 6.125 C18.879531 11.12551914 26.83663469 15.07803536 35 19 C37.00180017 19.99639153 39.00247217 20.99507087 41 22 C39.92188894 23.89880796 38.83726681 25.79391978 37.75 27.6875 C37.14671875 28.74324219 36.5434375 29.79898437 35.921875 30.88671875 C31.7530241 37.63991828 28.2695692 40.23981848 21.0625 43.25 C20.26392578 43.600625 19.46535156 43.95125 18.64257812 44.3125 C11.15968754 47.53628053 6.28915098 48.16755846 -1.6875 46.625 C-2.45900391 46.48578125 -3.23050781 46.3465625 -4.02539062 46.203125 C-9.69220267 45.15389867 -9.69220267 45.15389867 -12 44 C-11.608125 42.824375 -11.21625 41.64875 -10.8125 40.4375 C-10.53921875 39.60734375 -10.2659375 38.7771875 -9.984375 37.921875 C-9.29018832 35.86135263 -8.56880289 33.80989598 -7.828125 31.765625 C-4.14641702 21.35684566 -1.97210126 10.85206558 0 0 Z " fill="#101010" transform="translate(294,345)"/>
<path d="M0 0 C0.51064956 2.16418148 1.0079886 4.33150531 1.5 6.5 C1.7784375 7.7065625 2.056875 8.913125 2.34375 10.15625 C4.28876539 21.54848298 1.01469538 31.24105717 -5 41 C-9.80795374 46.65055165 -15.9799204 49.90647478 -23 52 C-23.40089844 51.1028125 -23.80179687 50.205625 -24.21484375 49.28125 C-27.42276184 42.20197111 -30.82186903 35.2803659 -34.625 28.5 C-34.98456787 27.85482422 -35.34413574 27.20964844 -35.71459961 26.54492188 C-37.57501736 23.27471245 -39.54630653 20.19053962 -41.7734375 17.15625 C-44 14 -44 14 -44 12 C-42.98184204 11.77449463 -42.98184204 11.77449463 -41.94311523 11.54443359 C-29.86265333 8.83898271 -18.11640663 6.1834276 -6.79296875 1.1015625 C-4 0 -4 0 0 0 Z " fill="#111111" transform="translate(392,280)"/>
<path d="M0 0 C4.8018405 0.62342288 9.06384436 2.03821208 13.5625 3.75 C23.48650459 7.40838291 33.68337112 9.73644868 44 12 C42.51734864 16.21385123 40.38176054 19.56410123 37.875 23.25 C32.66776234 31.09116204 28.85591341 39.43746807 25 48 C24.34342128 49.33832978 23.68309236 50.67500677 23 52 C15.26080421 49.69202025 8.0145018 45.89107908 3.67285156 38.84667969 C-2.10234996 27.62248134 -4.38727514 19.01152561 -1.5 6.5 C-1.2215625 5.2728125 -0.943125 4.045625 -0.65625 2.78125 C-0.33140625 1.40453125 -0.33140625 1.40453125 0 0 Z " fill="#111111" transform="translate(123,280)"/>
<path d="M0 0 C7.73919579 2.30797975 14.9854982 6.10892092 19.32714844 13.15332031 C25.10234996 24.37751866 27.38727514 32.98847439 24.5 45.5 C24.2215625 46.7271875 23.943125 47.954375 23.65625 49.21875 C23.4396875 50.1365625 23.223125 51.054375 23 52 C18.1981595 51.37657712 13.93615564 49.96178792 9.4375 48.25 C-0.48650459 44.59161709 -10.68337112 42.26355132 -21 40 C-19.51734864 35.78614877 -17.38176054 32.43589877 -14.875 28.75 C-9.66776234 20.90883796 -5.85591341 12.56253193 -2 4 C-1.34342128 2.66167022 -0.68309236 1.32499323 0 0 Z " fill="#111111" transform="translate(369,178)"/>
<path d="M0 0 C1.18688356 2.38879095 2.20689379 4.71549589 3.1875 7.1875 C7.17238412 16.75359001 11.87074702 25.85257713 18 34.25 C20 37 20 37 20 39 C18.98184204 39.22550537 18.98184204 39.22550537 17.94311523 39.45556641 C5.86265333 42.16101729 -5.88359337 44.8165724 -17.20703125 49.8984375 C-20 51 -20 51 -24 51 C-24.51064956 48.83581852 -25.0079886 46.66849469 -25.5 44.5 C-25.7784375 43.2934375 -26.056875 42.086875 -26.34375 40.84375 C-27.73394084 32.70120366 -26.89220457 27.09819609 -23.75 19.5625 C-23.40227539 18.7279126 -23.05455078 17.8933252 -22.69628906 17.03344727 C-19.15468245 9.24176019 -14.55131715 5.13164924 -7 1 C-6.28328125 0.57847656 -5.5665625 0.15695313 -4.828125 -0.27734375 C-3 -1 -3 -1 0 0 Z " fill="#0F0F0F" transform="translate(147,179)"/>
<path d="M0 0 C0.34611328 1.90458984 0.34611328 1.90458984 0.69921875 3.84765625 C2.71447369 14.60162731 5.27304959 24.71361686 9 35 C9.60997283 36.81055427 10.21510055 38.62275828 10.8125 40.4375 C11.204375 41.613125 11.59625 42.78875 12 44 C10.37829738 44.49021049 8.75236305 44.96642122 7.125 45.4375 C6.22007812 45.70433594 5.31515625 45.97117187 4.3828125 46.24609375 C-4.53641253 48.23386561 -10.42760626 48.22624048 -18.8125 44.375 C-19.63169922 44.03082031 -20.45089844 43.68664062 -21.29492188 43.33203125 C-28.81686768 40.030902 -32.8500215 35.57030582 -37.3125 28.6875 C-38.00988281 27.61886719 -38.70726562 26.55023438 -39.42578125 25.44921875 C-39.94527344 24.64097656 -40.46476563 23.83273437 -41 23 C-38.30525234 19.64408749 -34.68671711 18.48533757 -30.8125 16.9375 C-21.13769413 12.90447406 -11.98020394 7.61559365 -3.671875 1.203125 C-2 0 -2 0 0 0 Z " fill="#101010" transform="translate(221,345)"/>
<path d="M0 0 C1.12148438 0.40734375 2.24296875 0.8146875 3.3984375 1.234375 C14.04033027 5.71274202 18.504727 12.16168866 24 22 C21.2785839 25.40688557 17.54413328 26.60366826 13.625 28.1875 C4.32695229 32.09591065 -4.02235246 37.05254685 -12.1875 43 C-15 45 -15 45 -17 45 C-17.23074219 43.73027344 -17.46148437 42.46054688 -17.69921875 41.15234375 C-19.71447369 30.39837269 -22.27304959 20.28638314 -26 10 C-26.60997283 8.18944573 -27.21510055 6.37724172 -27.8125 4.5625 C-28.204375 3.386875 -28.59625 2.21125 -29 1 C-18.34313492 -2.11478226 -10.62450396 -4.15614205 0 0 Z " fill="#101010" transform="translate(311,120)"/>
<path d="M0 0 C1.29550781 0.17144531 2.59101563 0.34289062 3.92578125 0.51953125 C7.3502948 1.12762244 10.4290055 1.99019272 13.6875 3.1875 C13.295625 4.363125 12.90375 5.53875 12.5 6.75 C12.22671875 7.58015625 11.9534375 8.4103125 11.671875 9.265625 C10.97768832 11.32614737 10.25630289 13.37760402 9.515625 15.421875 C5.83391702 25.83065434 3.65960126 36.33543442 1.6875 47.1875 C-1.88760089 45.89770879 -4.6122323 44.36354816 -7.625 42.0625 C-13.83716713 37.60533973 -20.56188355 34.39928541 -27.4296875 31.09667969 C-30.07117203 29.82114955 -32.69187841 28.50525574 -35.3125 27.1875 C-36.09625 26.795625 -36.88 26.40375 -37.6875 26 C-38.22375 25.731875 -38.76 25.46375 -39.3125 25.1875 C-38.23438894 23.28869204 -37.14976681 21.39358022 -36.0625 19.5 C-35.45921875 18.44425781 -34.8559375 17.38851562 -34.234375 16.30078125 C-30.03180411 9.49295808 -26.52616814 6.94274816 -19.25 3.9375 C-18.02700195 3.4115625 -18.02700195 3.4115625 -16.77929688 2.875 C-10.63151795 0.24817581 -6.80086438 -0.93503477 0 0 Z " fill="#101010" transform="translate(219.3125,117.8125)"/>
<path d="M0 0 C3.03269352 1.96203817 5.92666251 4.04539564 8.75390625 6.2890625 C9.32681396 6.73934814 9.89972168 7.18963379 10.48999023 7.65356445 C11.61908354 8.54463355 12.74572285 9.43882286 13.86962891 10.33642578 C15.1175644 11.3308176 16.37756476 12.31004757 17.640625 13.28515625 C21.75221794 16.57621437 24.12323301 19.75703524 26.37890625 24.5390625 C26.37890625 25.5290625 26.37890625 26.5190625 26.37890625 27.5390625 C17.34876056 31.55246059 7.19646537 29.52682798 -2.24609375 28.1640625 C-3.13570801 28.03813721 -4.02532227 27.91221191 -4.94189453 27.7824707 C-5.7770459 27.65316162 -6.61219727 27.52385254 -7.47265625 27.390625 C-8.22369629 27.27541504 -8.97473633 27.16020508 -9.74853516 27.04150391 C-11.62109375 26.5390625 -11.62109375 26.5390625 -13.62109375 24.5390625 C-14.56504951 22.04473091 -15.4309445 19.5745558 -16.24609375 17.0390625 C-16.47554688 16.34941406 -16.705 15.65976562 -16.94140625 14.94921875 C-18.62109375 9.82017299 -18.62109375 9.82017299 -18.62109375 7.5390625 C-16.06878228 6.14143953 -13.50720164 4.77142228 -10.93359375 3.4140625 C-9.85174805 2.81658203 -9.85174805 2.81658203 -8.74804688 2.20703125 C-3.36980205 -0.59260304 -3.36980205 -0.59260304 0 0 Z " fill="#151515" transform="translate(308.62109375,260.4609375)"/>
<path d="M0 0 C0.97710937 0.49757813 1.95421875 0.99515625 2.9609375 1.5078125 C4.02054688 2.00539063 5.08015625 2.50296875 6.171875 3.015625 C7.21601563 3.54929687 8.26015625 4.08296875 9.3359375 4.6328125 C10.39554688 5.17164063 11.45515625 5.71046875 12.546875 6.265625 C13.34351563 6.67554688 14.14015625 7.08546875 14.9609375 7.5078125 C13.99469838 10.85195924 12.9819589 14.18003904 11.9609375 17.5078125 C11.744375 18.2915625 11.5278125 19.0753125 11.3046875 19.8828125 C10.6484375 22.0078125 10.6484375 22.0078125 8.9609375 25.5078125 C-1.37707024 29.97091716 -16.91837912 31.4066614 -27.7890625 28.5078125 C-28.5315625 28.1778125 -29.2740625 27.8478125 -30.0390625 27.5078125 C-29.53534186 21.96688545 -26.384799 17.71901882 -22.42993164 13.9909668 C-20.70761289 12.57169679 -18.95265099 11.21746422 -17.1640625 9.8828125 C-16.57753906 9.43164062 -15.99101562 8.98046875 -15.38671875 8.515625 C-14.20833957 7.61435917 -13.02114561 6.72449542 -11.82519531 5.84667969 C-10.6034638 4.93088203 -9.41051159 3.97575117 -8.24511719 2.98925781 C-3.80481011 -0.61620318 -3.80481011 -0.61620318 0 0 Z " fill="#121212" transform="translate(210.0390625,260.4921875)"/>
<path d="M0 0 C-0.50372064 5.54092705 -3.6542635 9.78879368 -7.60913086 13.5168457 C-9.33144961 14.93611571 -11.08641151 16.29034828 -12.875 17.625 C-13.46152344 18.07617188 -14.04804688 18.52734375 -14.65234375 18.9921875 C-15.83072293 19.89345333 -17.01791689 20.78331708 -18.21386719 21.66113281 C-19.4355987 22.57693047 -20.62855091 23.53206133 -21.79394531 24.51855469 C-23.5703125 25.9609375 -23.5703125 25.9609375 -27 28 C-30.0390625 27.5078125 -30.0390625 27.5078125 -33 26 C-34.05960937 25.50242188 -35.11921875 25.00484375 -36.2109375 24.4921875 C-37.25507813 23.95851562 -38.29921875 23.42484375 -39.375 22.875 C-40.43460937 22.33617187 -41.49421875 21.79734375 -42.5859375 21.2421875 C-43.38257813 20.83226562 -44.17921875 20.42234375 -45 20 C-44.03376088 16.65585326 -43.0210214 13.32777346 -42 10 C-41.67515625 8.824375 -41.67515625 8.824375 -41.34375 7.625 C-40.6875 5.5 -40.6875 5.5 -39 2 C-27.81269234 -2.83686537 -11.54085876 -4.10341645 0 0 Z " fill="#151515" transform="translate(335,222)"/>
<path d="M0 0 C0.89356201 0.12592529 1.78712402 0.25185059 2.70776367 0.3815918 C3.54799072 0.51090088 4.38821777 0.64020996 5.25390625 0.7734375 C6.01131104 0.88864746 6.76871582 1.00385742 7.54907227 1.12255859 C9.4375 1.625 9.4375 1.625 11.4375 3.625 C12.38145576 6.11933159 13.24735075 8.5895067 14.0625 11.125 C14.29195312 11.81464844 14.52140625 12.50429687 14.7578125 13.21484375 C16.4375 18.34388951 16.4375 18.34388951 16.4375 20.625 C13.88518853 22.02262297 11.32360789 23.39264022 8.75 24.75 C8.02876953 25.14832031 7.30753906 25.54664063 6.56445312 25.95703125 C1.1862083 28.75666554 1.1862083 28.75666554 -2.18359375 28.1640625 C-5.21628727 26.20202433 -8.11025626 24.11866686 -10.9375 21.875 C-11.51040771 21.42471436 -12.08331543 20.97442871 -12.67358398 20.51049805 C-13.80267729 19.61942895 -14.9293166 18.72523964 -16.05322266 17.82763672 C-17.30115815 16.8332449 -18.56115851 15.85401493 -19.82421875 14.87890625 C-23.93581169 11.58784813 -26.30682676 8.40702726 -28.5625 3.625 C-28.5625 2.635 -28.5625 1.645 -28.5625 0.625 C-19.03856661 -2.76128743 -9.81077347 -1.41075071 0 0 Z " fill="#151515" transform="translate(208.5625,221.375)"/>
<path d="M0 0 C1.68765239 0.4577719 3.37511352 0.9162489 5.0625 1.375 C6.47208984 1.75785156 6.47208984 1.75785156 7.91015625 2.1484375 C11.28002166 3.07717411 14.64027338 4.03528449 18 5 C20.02697834 13.74737676 21.29850068 22.18856382 21.3125 31.1875 C21.31765625 31.98841064 21.3228125 32.78932129 21.328125 33.61450195 C21.27786384 37.84855611 20.94210201 41.13900835 19 45 C9.59899963 41.68199987 4.94556019 35.76311487 -1 28 C-1.71542969 27.08734375 -2.43085938 26.1746875 -3.16796875 25.234375 C-3.81378906 24.37328125 -4.45960938 23.5121875 -5.125 22.625 C-5.70507812 21.85414063 -6.28515625 21.08328125 -6.8828125 20.2890625 C-8.35074944 17.28133158 -8.07806203 16.15018126 -7 13 C-5.87453525 10.69779033 -4.68200114 8.42760205 -3.4375 6.1875 C-2.9434668 5.2912793 -2.9434668 5.2912793 -2.43945312 4.37695312 C-1.63226733 2.91466002 -0.81695083 1.4568601 0 0 Z " fill="#141414" transform="translate(271,288)"/>
<path d="M0 0 C1.859375 2.765625 1.859375 2.765625 3.75 6.25 C4.38421875 7.38953125 5.0184375 8.5290625 5.671875 9.703125 C7.1011892 13.2511873 7.3209927 14.47929259 6 18 C0.68222058 27.38336001 -7.87014716 39.77922798 -18 44 C-18.66 44 -19.32 44 -20 44 C-22.31888517 39.38994541 -22.34497197 35.23131016 -22.3125 30.1875 C-22.31121094 29.35887451 -22.30992187 28.53024902 -22.30859375 27.67651367 C-22.1848804 19.57096959 -20.82515881 11.8764294 -19 4 C-16.39898714 3.13499112 -13.79493589 2.28273072 -11.1875 1.4375 C-10.44951172 1.19064453 -9.71152344 0.94378906 -8.95117188 0.68945312 C-3.33984375 -1.11328125 -3.33984375 -1.11328125 0 0 Z " fill="#141414" transform="translate(245,289)"/>
<path d="M0 0 C2.31888517 4.61005459 2.34497197 8.76868984 2.3125 13.8125 C2.31121094 14.64112549 2.30992187 15.46975098 2.30859375 16.32348633 C2.1848804 24.42903041 0.82515881 32.1235706 -1 40 C-3.60101286 40.86500888 -6.20506411 41.71726928 -8.8125 42.5625 C-9.91948242 42.9327832 -9.91948242 42.9327832 -11.04882812 43.31054688 C-16.66015625 45.11328125 -16.66015625 45.11328125 -20 44 C-21.859375 41.234375 -21.859375 41.234375 -23.75 37.75 C-24.38421875 36.61046875 -25.0184375 35.4709375 -25.671875 34.296875 C-27.1011892 30.7488127 -27.3209927 29.52070741 -26 26 C-21.36578053 17.82279929 -10.50266443 0 0 0 Z " fill="#141414" transform="translate(290,177)"/>
<path d="M0 0 C9.40100037 3.31800013 14.05443981 9.23688513 20 17 C20.71542969 17.91265625 21.43085938 18.8253125 22.16796875 19.765625 C22.81378906 20.62671875 23.45960938 21.4878125 24.125 22.375 C24.70507812 23.14585937 25.28515625 23.91671875 25.8828125 24.7109375 C27.35074944 27.71866842 27.07806203 28.84981874 26 32 C24.87453525 34.30220967 23.68200114 36.57239795 22.4375 38.8125 C22.10814453 39.40998047 21.77878906 40.00746094 21.43945312 40.62304688 C20.63226733 42.08533998 19.81695083 43.5431399 19 45 C17.31234761 44.5422281 15.62488648 44.0837511 13.9375 43.625 C12.99777344 43.36976563 12.05804688 43.11453125 11.08984375 42.8515625 C7.71997834 41.92282589 4.35972662 40.96471551 1 40 C-1.02697834 31.25262324 -2.29850068 22.81143618 -2.3125 13.8125 C-2.31765625 13.01158936 -2.3228125 12.21067871 -2.328125 11.38549805 C-2.27786384 7.15144389 -1.94210201 3.86099165 0 0 Z " fill="#141414" transform="translate(225,177)"/>
<path d="M0 0 C2.67901932 2.31881505 3.66204403 4.31814468 4.6875 7.6875 C5.06455078 8.89986328 5.06455078 8.89986328 5.44921875 10.13671875 C5.63097656 10.75160156 5.81273437 11.36648437 6 12 C3.3125 13.6875 3.3125 13.6875 0 15 C-2.875 13.6875 -2.875 13.6875 -5 12 C-4.54738642 10.56068883 -4.08767021 9.12361001 -3.625 7.6875 C-3.24214844 6.48673828 -3.24214844 6.48673828 -2.8515625 5.26171875 C-2 3 -2 3 0 0 Z " fill="#474747" transform="translate(257,215)"/>
<path d="M0 0 C0.99 0.66 1.98 1.32 3 2 C2.57405412 3.44096586 2.13373367 4.87768712 1.6875 6.3125 C1.44386719 7.11300781 1.20023437 7.91351563 0.94921875 8.73828125 C-0.04182023 11.09964573 -1.08074943 12.33879993 -3 14 C-3.83819158 12.37750059 -4.6704116 10.75191503 -5.5 9.125 C-5.9640625 8.22007812 -6.428125 7.31515625 -6.90625 6.3828125 C-8 4 -8 4 -8 2 C-4.75366476 -0.1642235 -3.75698557 -0.37569856 0 0 Z " fill="#464646" transform="translate(260,281)"/>
<path d="M0 0 C4.56454251 0.54339792 7.9728176 1.79463821 12 4 C12 4.66 12 5.32 12 6 C10.75539217 6.67667998 9.50403104 7.34094719 8.25 8 C7.55390625 8.37125 6.8578125 8.7425 6.140625 9.125 C4 10 4 10 0 10 C-2.21538462 4.58461538 -2.21538462 4.58461538 -1.125 1.625 C-0.75375 1.08875 -0.3825 0.5525 0 0 Z " fill="#414141" transform="translate(285,250)"/>
<path d="M0 0 C2.21538462 5.41538462 2.21538462 5.41538462 1.125 8.375 C0.75375 8.91125 0.3825 9.4475 0 10 C-4.56454251 9.45660208 -7.9728176 8.20536179 -12 6 C-12 5.34 -12 4.68 -12 4 C-10.75539217 3.32332002 -9.50403104 2.65905281 -8.25 2 C-7.55390625 1.62875 -6.8578125 1.2575 -6.140625 0.875 C-4 0 -4 0 0 0 Z " fill="#424242" transform="translate(230,250)"/>
<path d="M0 0 C1.32 3.3 2.64 6.6 4 10 C0.35839192 11.21386936 -0.33165469 10.6674695 -3.6875 9.0625 C-4.49574219 8.68222656 -5.30398438 8.30195313 -6.13671875 7.91015625 C-7.05904297 7.45962891 -7.05904297 7.45962891 -8 7 C-7.625 4.0625 -7.625 4.0625 -7 1 C-5 0 -5 0 0 0 Z " fill="#393939" transform="translate(282,272)"/>
<path d="M0 0 C2.31 0.33 4.62 0.66 7 1 C7.33 2.98 7.66 4.96 8 7 C6.5682384 7.69937202 5.12932968 8.38412718 3.6875 9.0625 C2.88699219 9.44535156 2.08648437 9.82820313 1.26171875 10.22265625 C-1 11 -1 11 -4 10 C-2.68 6.7 -1.36 3.4 0 0 Z " fill="#393939" transform="translate(233,272)"/>
<path d="M0 0 C-1.32 3.3 -2.64 6.6 -4 10 C-6.31 9.67 -8.62 9.34 -11 9 C-11.33 7.02 -11.66 5.04 -12 3 C-10.5682384 2.30062798 -9.12932968 1.61587282 -7.6875 0.9375 C-6.48673828 0.36322266 -6.48673828 0.36322266 -5.26171875 -0.22265625 C-3 -1 -3 -1 0 0 Z " fill="#393939" transform="translate(286,228)"/>
<path d="M0 0 C1.4391134 0.28359887 2.87625518 0.57721399 4.3125 0.875 C5.11300781 1.03742188 5.91351563 1.19984375 6.73828125 1.3671875 C9 2 9 2 12 4 C11.67 5.98 11.34 7.96 11 10 C8.69 10.33 6.38 10.66 4 11 C3.33125616 9.35500958 2.66505926 7.70898352 2 6.0625 C1.443125 4.68771484 1.443125 4.68771484 0.875 3.28515625 C0 1 0 1 0 0 Z " fill="#393939" transform="translate(229,227)"/>
<path d="M0 0 C0.66 0.33 1.32 0.66 2 1 C-8.23 11.23 -18.46 21.46 -29 32 C-29.66 31.67 -30.32 31.34 -31 31 C-21.13957311 20.17590138 -11.23485961 9.43213142 0 0 Z " fill="#626262" transform="translate(93,57)"/>
<path d="M0 0 C0.66 0.33 1.32 0.66 2 1 C-1.96 4.96 -5.92 8.92 -10 13 C-10.66 12.67 -11.32 12.34 -12 12 C-8.39424999 7.41086363 -4.52615993 3.67832017 0 0 Z " fill="#686868" transform="translate(153,236)"/>
<path d="M0 0 C0.66 0.33 1.32 0.66 2 1 C-1.96 4.96 -5.92 8.92 -10 13 C-10 10 -10 10 -7.8125 7.625 C-6.884375 6.75875 -5.95625 5.8925 -5 5 C-4.071875 4.071875 -3.14375 3.14375 -2.1875 2.1875 C-1.1046875 1.1046875 -1.1046875 1.1046875 0 0 Z " fill="#727272" transform="translate(193,270)"/>
<path d="M0 0 C0.66 0.33 1.32 0.66 2 1 C-1.63 4.63 -5.26 8.26 -9 12 C-9.66 11.67 -10.32 11.34 -11 11 C-7.81316569 6.66590534 -4.13621084 3.3810038 0 0 Z " fill="#626262" transform="translate(253,136)"/>
<path d="M0 0 C0.66 0.33 1.32 0.66 2 1 C1.0479279 2.00596297 0.08812654 3.00461563 -0.875 4 C-1.40867188 4.556875 -1.94234375 5.11375 -2.4921875 5.6875 C-4 7 -4 7 -6 7 C-4.60667426 3.63279613 -3.0210714 2.0140476 0 0 Z " fill="#7B7B7B" transform="translate(134,184)"/>
</svg>
